# Blender 4.0.2
# www.blender.org
mtllib gbarrel_collider.mtl
o Cylinder
v -0.002622 -1.060516 1.348785
v -0.040872 -1.103360 -1.295966
v 0.528616 -0.918171 1.348785
v 0.522829 -0.952317 -1.295966
v 0.935487 -0.539659 1.273625
v 0.935487 -0.539659 -1.295966
v 1.100454 0.001959 1.174008
v 1.086530 0.024042 -1.295966
v 0.952670 0.553496 1.174008
v 0.935487 0.587743 -1.295966
v 0.538996 0.940067 1.273624
v 0.522829 1.000401 -1.295966
v -0.002622 1.085193 1.273624
v -0.040872 1.151445 -1.295966
v -0.532664 0.920019 1.355761
v -0.604573 1.000401 -1.295966
v -0.920682 0.532001 1.355761
v -1.017231 0.587743 -1.295966
v -1.062707 0.001959 1.355762
v -1.168274 0.024042 -1.295966
v -0.940730 -0.539659 1.273625
v -1.017231 -0.539659 -1.295966
v -0.544239 -0.936150 1.273625
v -0.604573 -0.952317 -1.295966
v 0.001379 -1.361598 0.653191
v -0.006623 -1.358822 -0.675532
v 0.676940 -1.175661 -0.675532
v 0.679984 -1.179767 0.653191
v 1.177343 -0.675259 -0.675532
v 1.176758 -0.682993 0.653191
v 1.360503 0.008304 -0.675532
v 1.358590 -0.004387 0.653190
v 1.177343 0.691867 -0.675532
v 1.176758 0.674218 0.653190
v 0.676940 1.192270 -0.675532
v 0.679984 1.170992 0.653190
v -0.006623 1.375430 -0.675532
v 0.001379 1.352824 0.653190
v -0.690186 1.192270 -0.675532
v -0.677227 1.170992 0.653190
v -1.190589 0.691867 -0.675532
v -1.174001 0.674218 0.653190
v -1.373749 0.008304 -0.675532
v -1.355832 -0.004387 0.653190
v -1.190589 -0.675259 -0.675532
v -1.174001 -0.682993 0.653191
v -0.690186 -1.175661 -0.675532
v -0.677227 -1.179767 0.653191
vn 0.2393 -0.8931 -0.3809
vn 0.6496 -0.6496 -0.3952
vn 0.8864 -0.2375 -0.3974
vn 0.8906 0.2386 -0.3872
vn 0.6578 0.6578 -0.3668
vn 0.2433 0.9080 -0.3412
vn -0.2455 0.9161 -0.3172
vn -0.6742 0.6742 -0.3015
vn -0.9217 0.2470 -0.2990
vn -0.9182 -0.2460 -0.3103
vn -0.0000 -0.0000 -1.0000
vn -0.6670 -0.6670 -0.3321
vn -0.2417 -0.9019 -0.3580
vn 0.0532 0.0122 0.9985
vn -0.2466 -0.8867 0.3912
vn -0.7071 -0.7071 0.0047
vn -0.6498 -0.6498 0.3944
vn -0.9659 -0.2588 0.0106
vn -0.8903 -0.2474 0.3822
vn -0.9658 0.2588 0.0155
vn -0.8966 0.2403 0.3719
vn -0.7070 0.7070 0.0182
vn -0.6570 0.6570 0.3699
vn -0.2588 0.9658 0.0180
vn -0.2320 0.8970 0.3763
vn 0.2588 0.9658 0.0149
vn 0.2388 0.8911 0.3859
vn 0.7071 0.7071 0.0097
vn 0.6589 0.6333 0.4059
vn 0.9659 0.2588 0.0039
vn 0.8723 0.2337 0.4295
vn 0.9659 -0.2588 -0.0011
vn 0.8835 -0.2172 0.4151
vn 0.7071 -0.7071 -0.0038
vn 0.6562 -0.6437 0.3938
vn 0.2588 -0.9659 -0.0036
vn 0.2387 -0.8907 0.3869
vn -0.2588 -0.9659 -0.0005
vt 1.000000 0.875000
vt 1.000000 1.000000
vt 0.916667 1.000000
vt 0.916667 0.875000
vt 0.833333 1.000000
vt 0.833333 0.875000
vt 0.750000 1.000000
vt 0.750000 0.875000
vt 0.666667 1.000000
vt 0.666667 0.875000
vt 0.583333 1.000000
vt 0.583333 0.875000
vt 0.500000 1.000000
vt 0.500000 0.875000
vt 0.416667 1.000000
vt 0.416667 0.875000
vt 0.333333 1.000000
vt 0.333333 0.875000
vt 0.250000 1.000000
vt 0.250000 0.875000
vt 0.166667 1.000000
vt 0.166667 0.875000
vt 0.370000 0.457846
vt 0.250000 0.490000
vt 0.130000 0.457846
vt 0.042154 0.370000
vt 0.010000 0.250000
vt 0.042154 0.130000
vt 0.130000 0.042154
vt 0.250000 0.010000
vt 0.370000 0.042154
vt 0.457846 0.130000
vt 0.490000 0.250000
vt 0.457846 0.370000
vt 0.083333 1.000000
vt 0.083333 0.875000
vt 0.000000 1.000000
vt 0.000000 0.875000
vt 0.750000 0.490000
vt 0.870000 0.457846
vt 0.957846 0.370000
vt 0.990000 0.250000
vt 0.957846 0.130000
vt 0.870000 0.042154
vt 0.750000 0.010000
vt 0.630000 0.042154
vt 0.542154 0.130000
vt 0.510000 0.250000
vt 0.542154 0.370000
vt 0.630000 0.457846
vt 0.083333 0.500000
vt 0.083333 0.625000
vt 0.000000 0.625000
vt 0.000000 0.500000
vt 0.166667 0.625000
vt 0.166667 0.500000
vt 0.250000 0.625000
vt 0.250000 0.500000
vt 0.333333 0.625000
vt 0.333333 0.500000
vt 0.416667 0.625000
vt 0.416667 0.500000
vt 0.500000 0.625000
vt 0.500000 0.500000
vt 0.583333 0.625000
vt 0.583333 0.500000
vt 0.666667 0.625000
vt 0.666667 0.500000
vt 0.750000 0.625000
vt 0.750000 0.500000
vt 0.833333 0.625000
vt 0.833333 0.500000
vt 0.916667 0.625000
vt 0.916667 0.500000
vt 1.000000 0.625000
vt 1.000000 0.500000
s 0
f 26/1/1 2/2/1 4/3/1 27/4/1
f 27/4/2 4/3/2 6/5/2 29/6/2
f 29/6/3 6/5/3 8/7/3 31/8/3
f 31/8/4 8/7/4 10/9/4 33/10/4
f 33/10/5 10/9/5 12/11/5 35/12/5
f 35/12/6 12/11/6 14/13/6 37/14/6
f 37/14/7 14/13/7 16/15/7 39/16/7
f 39/16/8 16/15/8 18/17/8 41/18/8
f 41/18/9 18/17/9 20/19/9 43/20/9
f 43/20/10 20/19/10 22/21/10 45/22/10
f 4/23/11 2/24/11 24/25/11 22/26/11 20/27/11 18/28/11 16/29/11 14/30/11 12/31/11 10/32/11 8/33/11 6/34/11
f 45/22/12 22/21/12 24/35/12 47/36/12
f 47/36/13 24/35/13 2/37/13 26/38/13
f 1/39/14 3/40/14 5/41/14 7/42/14 9/43/14 11/44/14 13/45/14 15/46/14 17/47/14 19/48/14 21/49/14 23/50/14
f 23/51/15 48/52/15 25/53/15 1/54/15
f 45/22/16 47/36/16 48/52/16 46/55/16
f 21/56/17 46/55/17 48/52/17 23/51/17
f 43/20/18 45/22/18 46/55/18 44/57/18
f 19/58/19 44/57/19 46/55/19 21/56/19
f 41/18/20 43/20/20 44/57/20 42/59/20
f 17/60/21 42/59/21 44/57/21 19/58/21
f 39/16/22 41/18/22 42/59/22 40/61/22
f 15/62/23 40/61/23 42/59/23 17/60/23
f 37/14/24 39/16/24 40/61/24 38/63/24
f 13/64/25 38/63/25 40/61/25 15/62/25
f 35/12/26 37/14/26 38/63/26 36/65/26
f 11/66/27 36/65/27 38/63/27 13/64/27
f 33/10/28 35/12/28 36/65/28 34/67/28
f 9/68/29 34/67/29 36/65/29 11/66/29
f 31/8/30 33/10/30 34/67/30 32/69/30
f 7/70/31 32/69/31 34/67/31 9/68/31
f 29/6/32 31/8/32 32/69/32 30/71/32
f 5/72/33 30/71/33 32/69/33 7/70/33
f 27/4/34 29/6/34 30/71/34 28/73/34
f 3/74/35 28/73/35 30/71/35 5/72/35
f 25/75/36 26/1/36 27/4/36 28/73/36
f 1/76/37 25/75/37 28/73/37 3/74/37
f 47/36/38 26/38/38 25/53/38 48/52/38
